<svg viewBox="0 0 190 38" fill="none" xmlns="http://www.w3.org/2000/svg"><g clip-path="url(#a)"><path d="M6.01 20.93v-2.28c6.62-.93 13.3-1.37 19.98-1.34 0 .6 0 1.22-.06 1.84a24.9 24.9 0 0 1 5.94-1.84 16.77 16.77 0 0 0-6.77-8.29 16.25 16.25 0 0 0-19.92 2.08 16.95 16.95 0 0 0-5 9.5l5.83.33Zm20.97 3.55c-1.15 1.3-1.38 1.21-1.38 3.49v9.27a16.7 16.7 0 0 0 5.43-6.05 17.08 17.08 0 0 0 1.97-7.95 17.3 17.3 0 0 0-.32-3.13 32.86 32.86 0 0 0-5.7 4.37Zm-20.68 1.51s-3.75-1.46-5.14-1.85a8.33 8.33 0 0 0-1.16-.29c.1 2.92.96 5.76 2.46 8.24a16.63 16.63 0 0 0 6.14 5.91l-2.3-12.01Z" fill="#FDC305"/><path d="M26.04 17.3a92.52 92.52 0 0 0-1.39-16.64s-.14-1.3-.88-.25c-.58 1.27-.98 2.6-1.19 3.99a68.3 68.3 0 0 0-12.65.34c-.78-2.72-2.16-3.98-2.82-3.73-.66.25-.71 3.34-.71 3.34l-.33 14.25a139.1 139.1 0 0 1 19.97-1.3Z" fill="#F06351"/><path d="M12.3 14.15c0-.1.98.68 1.39.92.4.25.6.43.6.6 0 .17-.27.34-.62.34-.36 0-.9-.12-1-.27h1.23c-.6-.45-1.15-1-1.6-1.6Zm7.4.11-1.08 1.34c0 .06-.17.35.18.3.4-.06.81-.16 1.2-.29.11 0 .08-.2-.1-.17-.18.02-.69.05-1 .11l.84-1.27s.07-.13-.04-.02Zm-3.11 6.15c.46-.2.84-.56 1.08-1.01.28-.66 0-.92-.44-1.01-.6-.11-1.2.01-1.72.34-.39.37-.34.73-.05 1.01.35.27.73.5 1.13.67Z" fill="#000"/><path d="M16.2 21.67a1.7 1.7 0 0 1-1.45.99 2.1 2.1 0 0 1-1.46-.43c-.2-.12-.37-.27-.52-.45-.1-.1-.22-.2-.36-.26 0 0 .74 4.14 2.54 4.8 1.8.66 2.12-.76 2.18-1.14a5.76 5.76 0 0 0-.8-3.27c-.03-.3-.04-.1-.14-.24Z" fill="#F06351"/><path d="M14.57 22.82a3.36 3.36 0 0 1-2.35-1.53.14.14 0 0 1 .09-.13.14.14 0 0 1 .15.03c.5.7 1.25 1.17 2.09 1.31a2.04 2.04 0 0 0 1.61-1l.14-.2.1.21s.37.77 1 .8c.62.05 1.03-.4 1.59-1.28a.14.14 0 0 1 .2 0c.03.02.05.05.06.09 0 .03 0 .07-.02.1-.63 1.02-1.25 1.46-1.86 1.42a1.52 1.52 0 0 1-1.1-.77 2.25 2.25 0 0 1-1.7.95Z" fill="#000"/><path d="M25.99 19.12a58.7 58.7 0 0 0-5.02 5.24 31.58 31.58 0 0 1-5.24 4.94c-.22-.53-1.6-1.52-1.6-1.52s-3.1-2.17-5.14-3.86a34.1 34.1 0 0 1-3.1-3.04l-1.98-.1a22.39 22.39 0 0 0 11.89 8.88c.85-.14 3.24-1.87 5.02-3.29a58.15 58.15 0 0 0 5.88-5.95c.5-.6.88-1.28 1.13-2.02-1.09.4-1.84.72-1.84.72Z" fill="#F06351"/></g><g clip-path="url(#b)" fill="#111"><path d="M90.26 26.54a6.87 6.87 0 0 1-1.26-4.3v-6.4c-.1-1.54.3-3.08 1.19-4.38.86-1 2.2-1.46 4.18-1.46 1.98 0 3.24.46 4.03 1.3a5.42 5.42 0 0 1 1.19 3.78v1.54h-3.87v-1.77a3.7 3.7 0 0 0-.24-1.54 1.16 1.16 0 0 0-1.1-.62c-.56 0-.95.16-1.11.54a4.85 4.85 0 0 0-.24 1.7v8.22c-.04.56.07 1.12.32 1.62.15.38.55.54 1.1.54.56 0 .87-.16 1.03-.54.18-.52.26-1.07.24-1.62v-1.84h3.87v1.54a5.77 5.77 0 0 1-1.19 3.84c-.79.93-2.13 1.39-4.03 1.39-1.9-.08-3.32-.54-4.1-1.54Zm13.99-16.31h4.5l3.33 17.54h-3.64l-.63-3.7h-2.6l-.64 3.7h-3.72l3.4-17.54Zm3.24 11.54-.94-6.85-.95 6.85h1.9Zm7.35-8.62h-2.68v-2.92h9.4v2.85h-2.69v14.69h-4.03v-14.62Zm13.91-2.92h6.96v1.85h-4.5v5.77h3.63v1.77h-3.64v6.46h4.5v1.77h-7.03v-17.62h.08Zm9.01 0h1.74l5.14 11.62v-11.62h2.05v17.54h-1.58l-5.22-12v12h-2.13v-17.54Zm11.3 0h6.96v1.85h-4.5v5.77h3.63v1.77h-3.64v6.46h4.5v1.77h-6.95v-17.62Zm9.01 0h3.64c1.43-.1 2.85.28 4.03 1.08.87.69 1.26 1.92 1.26 3.54 0 2.23-.7 3.61-2.21 4.07l2.53 8.77h-2.45l-2.37-8.23h-1.98v8.23h-2.53v-17.46h.08Zm3.48 7.54c.81.06 1.63-.15 2.3-.62.47-.38.7-1.15.7-2.3a4.84 4.84 0 0 0-.24-1.7 1.96 1.96 0 0 0-.86-.92 3.69 3.69 0 0 0-1.74-.3h-1.1v5.76h.94v.08Zm8.61 8.69a7.6 7.6 0 0 1-1.1-4.46v-5.85a12.3 12.3 0 0 1 .4-3.3c.26-.81.78-1.51 1.5-2 .88-.51 1.9-.75 2.92-.7 1.66 0 2.84.39 3.55 1.23a5.77 5.77 0 0 1 1.11 3.85v.62h-2.37v-.54c0-.65-.05-1.29-.16-1.93-.06-.4-.3-.76-.63-1a2.5 2.5 0 0 0-1.5-.38 2.42 2.42 0 0 0-1.58.46 1.73 1.73 0 0 0-.64 1.23c-.1.69-.15 1.38-.15 2.08v6.54c-.06 1 .1 2 .47 2.92.32.62.95.85 1.9.85a1.96 1.96 0 0 0 1.89-.93 6.9 6.9 0 0 0 .56-3.07v-1.23h-2.3v-1.77h4.59v8.69h-1.58l-.24-2c-.2.67-.64 1.25-1.22 1.66-.6.4-1.3.6-2.02.57a4.05 4.05 0 0 1-3.4-1.54Zm13.52-4.84-3.88-11.31h2.38l2.76 8.46 2.69-8.46h2.37l-3.87 11.3v6.16h-2.37v-6.15h-.08Z"/></g><defs><clipPath id="a"><path fill="#fff" d="M0 0h33v38h-33z"/></clipPath><clipPath id="b"><path fill="#fff" transform="translate(89 10)" d="M0 0h101v18h-101z"/></clipPath></defs></svg>