<svg viewBox="0 0 190 38" fill="none" xmlns="http://www.w3.org/2000/svg"><g clip-path="url(#a)"><path d="M6.01 20.93v-2.28c6.62-.93 13.3-1.37 19.98-1.34 0 .6 0 1.22-.06 1.84a24.9 24.9 0 0 1 5.94-1.84 16.77 16.77 0 0 0-6.77-8.29 16.25 16.25 0 0 0-19.92 2.08 16.95 16.95 0 0 0-5 9.5l5.83.33Zm20.97 3.55c-1.15 1.3-1.38 1.21-1.38 3.49v9.27a16.7 16.7 0 0 0 5.43-6.05 17.08 17.08 0 0 0 1.97-7.95 17.3 17.3 0 0 0-.32-3.13 32.86 32.86 0 0 0-5.7 4.37Zm-20.68 1.51s-3.75-1.46-5.14-1.85a8.33 8.33 0 0 0-1.16-.29c.1 2.92.96 5.76 2.46 8.24a16.63 16.63 0 0 0 6.14 5.91l-2.3-12.01Z" fill="#FDC305"/><path d="M26.04 17.3a92.51 92.51 0 0 0-1.39-16.64s-.14-1.3-.88-.25c-.58 1.27-.98 2.6-1.19 3.99a68.3 68.3 0 0 0-12.65.34c-.78-2.72-2.16-3.98-2.82-3.73-.66.25-.71 3.34-.71 3.34l-.33 14.25a139.1 139.1 0 0 1 19.97-1.3Z" fill="#F06351"/><path d="M12.3 14.15c0-.1.98.68 1.39.92.4.25.6.43.6.6 0 .17-.27.34-.62.34-.36 0-.9-.12-1-.27h1.23c-.6-.45-1.15-1-1.6-1.6Zm7.4.11-1.08 1.34c0 .06-.17.35.18.3.4-.06.81-.16 1.2-.29.11 0 .08-.2-.1-.17-.18.02-.69.05-1 .11l.84-1.27s.07-.13-.04-.02Zm-3.11 6.15c.46-.2.84-.56 1.08-1.01.28-.66 0-.92-.44-1.01-.6-.11-1.2.01-1.72.34-.39.37-.34.73-.05 1.01.35.27.73.5 1.13.67Z" fill="#000"/><path d="M16.2 21.67a1.7 1.7 0 0 1-1.45.99 2.1 2.1 0 0 1-1.46-.43c-.2-.12-.37-.27-.52-.45-.1-.1-.22-.2-.36-.26 0 0 .74 4.14 2.54 4.8 1.8.66 2.12-.76 2.18-1.14a5.76 5.76 0 0 0-.8-3.27c-.03-.3-.04-.1-.14-.24Z" fill="#F06351"/><path d="M14.57 22.82a3.36 3.36 0 0 1-2.35-1.53.14.14 0 0 1 .09-.13.14.14 0 0 1 .15.03c.5.7 1.25 1.17 2.09 1.31a2.04 2.04 0 0 0 1.61-1l.14-.2.1.21s.37.77 1 .8c.62.05 1.03-.4 1.59-1.28a.14.14 0 0 1 .2 0c.03.02.05.05.06.09 0 .03 0 .07-.02.1-.63 1.02-1.25 1.46-1.86 1.42a1.52 1.52 0 0 1-1.1-.77 2.25 2.25 0 0 1-1.7.95Z" fill="#000"/><path d="M25.99 19.12a58.7 58.7 0 0 0-5.02 5.24 31.58 31.58 0 0 1-5.24 4.94c-.22-.53-1.6-1.52-1.6-1.52s-3.1-2.17-5.14-3.86a34.1 34.1 0 0 1-3.1-3.04l-1.98-.1a22.39 22.39 0 0 0 11.89 8.88c.85-.14 3.24-1.87 5.02-3.29a58.15 58.15 0 0 0 5.88-5.95c.5-.6.88-1.28 1.13-2.02-1.09.4-1.84.72-1.84.72Z" fill="#F06351"/></g><g clip-path="url(#b)" fill="#111"><path d="M90.26 29.92a7.92 7.92 0 0 1-1.26-4.68v-6.93c-.1-1.68.3-3.35 1.19-4.76.86-1.08 2.2-1.58 4.18-1.58 1.98 0 3.24.5 4.03 1.42a6.23 6.23 0 0 1 1.19 4.09v1.67h-3.87v-1.92a4.32 4.32 0 0 0-.24-1.67c-.1-.22-.26-.4-.46-.52-.2-.11-.42-.17-.65-.15-.55 0-.94.17-1.1.58-.18.6-.26 1.22-.24 1.84v8.94c-.04.6.07 1.2.32 1.75.15.42.55.58 1.1.58.56 0 .87-.16 1.03-.58.18-.56.26-1.16.24-1.75v-2h3.87v1.66a6.64 6.64 0 0 1-1.19 4.18c-.79 1-2.13 1.5-4.03 1.5-1.9-.08-3.32-.58-4.1-1.67Zm13.99-17.7h4.5l3.33 19.04h-3.64l-.63-4.01h-2.6l-.64 4h-3.72l3.4-19.03Zm3.24 12.52-.94-7.43-.95 7.43h1.9Zm7.35-9.34h-2.68v-3.18h9.4v3.09h-2.69v15.95h-4.03v-15.87Zm13.91-3.18h6.96v2h-4.5v6.27h3.63v1.92h-3.64v7.01h4.5v1.92h-7.03v-19.12h.08Zm9.01 0h1.74l5.14 12.6v-12.6h2.05v19.04h-1.58l-5.22-13.03v13.03h-2.13v-19.04Zm11.3 0h6.96v2h-4.5v6.27h3.63v1.92h-3.64v7.01h4.5v1.92h-6.95v-19.12Zm9.01 0h3.64c1.43-.1 2.85.3 4.03 1.17.87.75 1.26 2.09 1.26 3.84 0 2.42-.7 3.92-2.21 4.42l2.53 9.52h-2.45l-2.37-8.93h-1.98v8.93h-2.53v-18.95h.08Zm3.48 8.18c.81.07 1.63-.16 2.3-.67.47-.41.7-1.25.7-2.5a5.67 5.67 0 0 0-.24-1.84 2.08 2.08 0 0 0-.86-1 3.43 3.43 0 0 0-1.74-.33h-1.1v6.26h.94v.08Zm8.61 9.44a8.82 8.82 0 0 1-1.1-4.84v-6.35a14.1 14.1 0 0 1 .4-3.6c.26-.87.78-1.63 1.5-2.16.88-.55 1.9-.82 2.92-.75 1.66 0 2.84.41 3.55 1.33a6.66 6.66 0 0 1 1.11 4.18v.66h-2.37v-.58c0-.7-.05-1.4-.16-2.09a1.7 1.7 0 0 0-.63-1.08 2.3 2.3 0 0 0-1.5-.42 2.28 2.28 0 0 0-1.58.5 1.97 1.97 0 0 0-.63 1.34c-.1.74-.16 1.5-.16 2.25v7.1c-.06 1.08.1 2.16.47 3.17.32.67.95.92 1.9.92.37.05.75-.02 1.09-.2.34-.18.62-.46.8-.8a8.1 8.1 0 0 0 .56-3.34v-1.34h-2.3v-1.92h4.59v9.44h-1.58l-.24-2.17a3.4 3.4 0 0 1-1.22 1.8 3.1 3.1 0 0 1-2.02.62c-.65.04-1.3-.1-1.9-.38a4 4 0 0 1-1.5-1.3Zm13.52-5.26-3.88-12.28h2.38l2.76 9.19 2.69-9.19h2.37l-3.87 12.28v6.68h-2.37v-6.68h-.08Z"/></g><defs><clipPath id="a"><path fill="#fff" d="M0 0h33v38h-33z"/></clipPath><clipPath id="b"><path fill="#fff" transform="translate(89 11.967)" d="M0 0h101v19.54h-101z"/></clipPath></defs></svg>