<svg xmlns="http://www.w3.org/2000/svg" width="128" height="24" fill="none"><g fill="#111" clip-path="url(#a)"><path d="M1.62 21.96a9.43 9.43 0 0 1-1.6-5.72V7.76a9.56 9.56 0 0 1 1.5-5.82C2.62.61 4.32 0 6.83 0c2.5 0 4.1.61 5.1 1.74a7.43 7.43 0 0 1 1.51 5v2.04h-4.9V6.43c.03-.7-.07-1.39-.3-2.04a1.42 1.42 0 0 0-1.4-.82c-.71 0-1.21.2-1.41.72a6.72 6.72 0 0 0-.3 2.25v10.92a4.3 4.3 0 0 0 .4 2.15c.2.5.7.71 1.4.71s1.1-.2 1.3-.71c.23-.7.33-1.42.3-2.15v-2.45h4.91v2.05a7.92 7.92 0 0 1-1.5 5.1c-1 1.23-2.7 1.84-5.1 1.84-2.41-.1-4.22-.71-5.22-2.04ZM19.35.3h5.7l4.21 23.3h-4.6l-.8-4.91h-3.31l-.8 4.9h-4.7L19.34.31Zm4.1 15.33-1.2-9.1-1.2 9.1h2.4ZM32.77 4.19h-3.4V.3h11.9v3.78h-3.4v19.5h-5.1V4.2ZM50.4.3h8.8v2.46h-5.7v7.66h4.6v2.35h-4.6v8.57h5.7v2.35h-8.9V.31h.1ZM61.8.3h2.21l6.51 15.43V.3h2.6v23.28h-2l-6.6-15.93v15.93H61.8V.31ZM76.13.3h8.81v2.46h-5.7v7.66h4.6v2.35h-4.6v8.57h5.7v2.35h-8.81V.31ZM87.54.3h4.61a7.9 7.9 0 0 1 5.1 1.44c1.1.92 1.6 2.55 1.6 4.7 0 2.96-.9 4.8-2.8 5.4l3.21 11.65h-3.1l-3-10.93h-2.51V23.5h-3.2V.3h.1Zm4.41 10.01c1.03.1 2.06-.2 2.9-.81.6-.51.9-1.53.9-3.07a6.72 6.72 0 0 0-.3-2.24 2.58 2.58 0 0 0-1.1-1.23 4.49 4.49 0 0 0-2.2-.4h-1.4v7.65h1.2v.1ZM102.86 21.86a10.49 10.49 0 0 1-1.4-5.93V8.17a17 17 0 0 1 .5-4.4c.34-1.06 1-2 1.9-2.65 1.12-.67 2.41-1 3.71-.92 2.1 0 3.6.51 4.5 1.64a7.93 7.93 0 0 1 1.41 5.1v.82h-3v-.71c0-.86-.07-1.71-.2-2.56a2.05 2.05 0 0 0-.8-1.32 3.05 3.05 0 0 0-1.9-.51 2.96 2.96 0 0 0-2.01.6 2.3 2.3 0 0 0-.8 1.64c-.13.92-.2 1.84-.2 2.76v8.68a9.43 9.43 0 0 0 .6 3.88c.4.82 1.2 1.12 2.4 1.12a2.38 2.38 0 0 0 2.4-1.22c.53-1.3.77-2.69.7-4.09V14.4h-2.9v-2.35h5.81V23.6h-2l-.3-2.65a4.17 4.17 0 0 1-1.56 2.2c-.74.53-1.64.8-2.55.76a4.92 4.92 0 0 1-4.3-2.04ZM119.99 15.42 115.09.41h3l3.5 11.23L125 .41H128l-4.9 15.01v8.17h-3.01v-8.17h-.1Z"/></g><defs><clipPath id="a"><path fill="#fff" d="M0 0h128v24H0z"/></clipPath></defs></svg>